<svg id="Layer_1" data-name="Layer 1" xmlns="http://www.w3.org/2000/svg" viewBox="0 0 2250.95 423.95"><defs><style>.cls-1,.cls-4,.cls-7{fill:#fff;}.cls-1,.cls-3,.cls-4,.cls-5{stroke:#000;}.cls-1,.cls-3,.cls-4,.cls-5,.cls-7,.cls-8{stroke-linejoin:round;}.cls-1,.cls-3,.cls-7,.cls-8{stroke-width:3px;}.cls-2{fill:#f2f2f2;}.cls-3,.cls-5,.cls-8{fill:none;}.cls-4,.cls-5{stroke-width:2.5px;}.cls-6,.cls-9{isolation:isolate;}.cls-6{font-size:91.49px;font-family:Rajdhani-SemiBold, Rajdhani;font-weight:600;}.cls-7,.cls-8{stroke:#558eff;}.cls-9{font-size:161.51px;fill:#1a1a1a;font-family:SquarePeg-Regular, Square Peg;}.cls-10{letter-spacing:-0.08em;}</style></defs><g id="logo4"><g id="back"><path class="cls-1" d="M143.66,222l-140-.4,68.7-118.2Z" transform="translate(1777.04 -4.15)"/><polygon class="cls-2" points="1849.4 99.2 1818.7 217.5 1920.7 217.8 1849.4 99.2"/><path class="cls-3" d="M143.66,222l-140-.4,68.7-118.2Z" transform="translate(1777.04 -4.15)"/></g><g id="three"><polygon class="cls-1" points="2113.3 218.1 1985.5 217.7 1916.5 217.5 1857.7 217.3 1889.3 163 1889.3 162.9 1951.5 55.9 1951.6 55.8 1983.1 1.6 1983.8 2.7 1984.6 4.1 1985.9 6.3 2113.3 218.1"/><polygon class="cls-3" points="2113.3 218.4 1985.5 218 1916.5 217.8 1857.7 217.6 1889.3 163.4 1889.3 163.3 1951.5 56.2 1951.6 56.1 1983.1 1.9 1983.8 3 1984.6 4.4 1985.9 6.6 2113.3 218.4"/><path class="cls-3" d="M143.36,114l127.8.4-62.7,107.8Z" transform="translate(1777.04 -4.15)"/><path class="cls-3" d="M239.06,167.75l-63.5-.2,31.1-53.6Z" transform="translate(1777.04 -4.15)"/><path class="cls-3" d="M112.16,167.45l63.5.2-31.1,53.6Z" transform="translate(1777.04 -4.15)"/><path class="cls-3" d="M174.46,60.25l63.5.2-31.1,53.6Z" transform="translate(1777.04 -4.15)"/><path class="cls-3" d="M239.06,167.75l63.5.2-31.1,53.6Z" transform="translate(1777.04 -4.15)"/></g><g id="second"><path class="cls-1" d="M418.66,222.55l-170-.5,83.4-143.5Z" transform="translate(1777.04 -4.15)"/><polygon class="cls-2" points="2109.1 74.4 2071.8 218 2195.7 218.4 2109.1 74.4"/><path class="cls-3" d="M418.66,222.55l-170-.5,83.4-143.5Z" transform="translate(1777.04 -4.15)"/></g><g id="front"><path class="cls-4" d="M472.66,222.85l-110-.3,54-92.9Z" transform="translate(1777.04 -4.15)"/><polygon class="cls-2" points="2193.7 125.5 2169.6 218.5 2249.7 218.7 2193.7 125.5"/><path class="cls-5" d="M472.66,222.85l-110-.3,54-92.9Z" transform="translate(1777.04 -4.15)"/></g></g><g id="logo3"><g id="back-2" data-name="back"><path class="cls-1" d="M-437.54,221.55l-140-1,69.2-117.9Z" transform="translate(1777.04 -4.15)"/><polygon class="cls-2" points="1268.7 98.5 1237.5 216.7 1339.5 217.4 1268.7 98.5"/><path class="cls-3" d="M-437.54,221.55l-140-1,69.2-117.9Z" transform="translate(1777.04 -4.15)"/></g><g id="three-2" data-name="three"><polygon class="cls-1" points="1532.1 218.5 1404.4 217.6 1335.4 217.1 1276.5 216.7 1308.3 162.5 1308.4 162.4 1371 55.6 1371.1 55.6 1402.8 1.5 1403.5 2.6 1404.3 4 1405.6 6.1 1532.1 218.5"/><polygon class="cls-3" points="1532.1 218.8 1404.4 217.9 1335.4 217.4 1276.5 217 1308.3 162.9 1308.4 162.7 1371 56 1371.1 55.9 1402.8 1.8 1403.5 2.9 1404.3 4.3 1405.6 6.5 1532.1 218.8"/><path class="cls-3" d="M-437.34,113.55l127.8.9-63.1,107.6Z" transform="translate(1777.04 -4.15)"/><path class="cls-3" d="M-341.84,167.75l-63.5-.5,31.3-53.4Z" transform="translate(1777.04 -4.15)"/><path class="cls-3" d="M-468.84,166.85l63.5.5-31.3,53.4Z" transform="translate(1777.04 -4.15)"/><path class="cls-3" d="M-406.14,60.05l63.5.5-31.3,53.5Z" transform="translate(1777.04 -4.15)"/><path class="cls-3" d="M-341.84,167.75l63.5.5-31.3,53.4Z" transform="translate(1777.04 -4.15)"/></g><g id="second-2" data-name="second"><path class="cls-1" d="M-162.54,223.25l-170-1.2,84-143.2Z" transform="translate(1777.04 -4.15)"/><polygon class="cls-2" points="1528.5 74.8 1490.7 218.3 1614.5 219.1 1528.5 74.8"/><path class="cls-3" d="M-162.54,223.25l-170-1.2,84-143.2Z" transform="translate(1777.04 -4.15)"/></g><g id="front-2" data-name="front"><path class="cls-4" d="M-108.54,223.85l-110-.8,54.4-92.6Z" transform="translate(1777.04 -4.15)"/><polygon class="cls-2" points="1612.9 126.3 1588.4 219.1 1668.5 219.7 1612.9 126.3"/><path class="cls-5" d="M-108.54,223.85l-110-.8,54.4-92.6Z" transform="translate(1777.04 -4.15)"/></g><text class="cls-6" transform="translate(1209.38 321.16)">THREE PARK</text></g><g id="logo2"><g id="back-3" data-name="back"><path class="cls-7" d="M-1027.54,221.55l-140-1,69.2-117.9Z" transform="translate(1777.04 -4.15)"/><polygon class="cls-2" points="678.7 98.5 647.5 216.7 749.5 217.4 678.7 98.5"/><path class="cls-8" d="M-1027.54,221.55l-140-1,69.2-117.9Z" transform="translate(1777.04 -4.15)"/></g><g id="three-3" data-name="three"><polygon class="cls-7" points="942.1 218.5 814.4 217.6 745.4 217.1 686.5 216.7 718.3 162.5 718.4 162.4 781 55.6 781.1 55.6 812.8 1.5 813.5 2.6 814.3 4 815.6 6.1 942.1 218.5"/><polygon class="cls-8" points="942.1 218.8 814.4 217.9 745.4 217.4 686.5 217 718.3 162.9 718.4 162.7 781 56 781.1 55.9 812.8 1.8 813.5 2.9 814.3 4.3 815.6 6.5 942.1 218.8"/><path class="cls-8" d="M-1027.34,113.55l127.8.9-63.1,107.6Z" transform="translate(1777.04 -4.15)"/><path class="cls-8" d="M-931.84,167.75l-63.5-.5,31.3-53.4Z" transform="translate(1777.04 -4.15)"/><path class="cls-8" d="M-1058.84,166.85l63.5.5-31.3,53.4Z" transform="translate(1777.04 -4.15)"/><path class="cls-8" d="M-996,60.05l63.5.5-31.3,53.5Z" transform="translate(1777.04 -4.15)"/><path class="cls-8" d="M-931.84,167.75l63.5.5-31.3,53.4Z" transform="translate(1777.04 -4.15)"/></g><g id="second-3" data-name="second"><path class="cls-7" d="M-752.54,223.25l-170-1.2,84-143.2Z" transform="translate(1777.04 -4.15)"/><polygon class="cls-2" points="938.5 74.8 900.7 218.3 1024.5 219.1 938.5 74.8"/><path class="cls-8" d="M-752.54,223.25l-170-1.2,84-143.2Z" transform="translate(1777.04 -4.15)"/></g><g id="front-3" data-name="front"><path class="cls-4" d="M-698.54,223.85l-110-.8,54.4-92.6Z" transform="translate(1777.04 -4.15)"/><polygon class="cls-2" points="1022.9 126.3 998.4 219.1 1078.5 219.7 1022.9 126.3"/><path class="cls-8" d="M-698.54,223.85l-110-.8,54.4-92.6Z" transform="translate(1777.04 -4.15)"/></g></g><g id="logo1"><g id="back-4" data-name="back"><path class="cls-7" d="M-1635.54,221.55l-140-1,69.2-117.9Z" transform="translate(1777.04 -4.15)"/><polygon class="cls-2" points="70.7 98.5 39.5 216.7 141.5 217.4 70.7 98.5"/><path class="cls-8" d="M-1635.54,221.55l-140-1,69.2-117.9Z" transform="translate(1777.04 -4.15)"/></g><g id="three-4" data-name="three"><polygon class="cls-7" points="334.1 218.5 206.4 217.6 137.4 217.1 78.5 216.7 110.3 162.5 110.4 162.4 173 55.6 173.1 55.6 204.8 1.5 205.5 2.6 206.3 4 207.6 6.1 334.1 218.5"/><polygon class="cls-8" points="334.1 218.8 206.4 217.9 137.4 217.4 78.5 217 110.3 162.9 110.4 162.7 173 56 173.1 55.9 204.8 1.8 205.5 2.9 206.3 4.3 207.6 6.5 334.1 218.8"/><path class="cls-8" d="M-1635.34,113.55l127.8.9-63.1,107.6Z" transform="translate(1777.04 -4.15)"/><path class="cls-8" d="M-1539.84,167.75l-63.5-.5,31.3-53.4Z" transform="translate(1777.04 -4.15)"/><path class="cls-8" d="M-1666.84,166.85l63.5.5-31.3,53.4Z" transform="translate(1777.04 -4.15)"/><path class="cls-8" d="M-1604.14,60.05l63.5.5-31.3,53.5Z" transform="translate(1777.04 -4.15)"/><path class="cls-8" d="M-1539.84,167.75l63.5.5-31.3,53.4Z" transform="translate(1777.04 -4.15)"/></g><g id="second-4" data-name="second"><path class="cls-7" d="M-1360.54,223.25l-170-1.2,84-143.2Z" transform="translate(1777.04 -4.15)"/><polygon class="cls-2" points="330.5 74.8 292.7 218.3 416.5 219.1 330.5 74.8"/><path class="cls-8" d="M-1360.54,223.25l-170-1.2,84-143.2Z" transform="translate(1777.04 -4.15)"/></g><g id="front-4" data-name="front"><path class="cls-7" d="M-1306.54,223.85l-110-.8,54.3-92.6Z" transform="translate(1777.04 -4.15)"/><polygon class="cls-2" points="414.9 126.3 390.4 219.1 470.5 219.7 414.9 126.3"/><path class="cls-8" d="M-1306.54,223.85l-110-.8,54.3-92.6Z" transform="translate(1777.04 -4.15)"/></g><text class="cls-9" transform="translate(18.13 357.89)">Three <tspan class="cls-10" x="246.94" y="0">P</tspan><tspan x="280.05" y="0">ark</tspan></text></g></svg>