<?xml version="1.0" encoding="utf-8"?>
<!-- Generator: Adobe Illustrator 25.4.1, SVG Export Plug-In . SVG Version: 6.00 Build 0)  -->
<svg version="1.1" id="Layer_1" xmlns="http://www.w3.org/2000/svg" xmlns:xlink="http://www.w3.org/1999/xlink" x="0px" y="0px"
	 viewBox="0 0 478 225.9" style="enable-background:new 0 0 478 225.9;" xml:space="preserve">
<style type="text/css">
	.st0{display:none;fill:#666666;}
	.st1{fill:#0E0E0E;stroke:#558EFF;stroke-width:3;stroke-linejoin:round;stroke-miterlimit:10;}
	.st2{display:none;}
	.st3{display:inline;fill:#FFFFFF;stroke:#000000;stroke-width:3;stroke-linejoin:round;stroke-miterlimit:10;}
	.st4{display:inline;fill:#F2F2F2;}
	.st5{display:inline;fill:none;stroke:#000000;stroke-width:3;stroke-linejoin:round;stroke-miterlimit:10;}
	.st6{fill:#FFFFFF;stroke:#000000;stroke-width:3;stroke-linejoin:round;stroke-miterlimit:10;}
	.st7{fill:none;stroke:#000000;stroke-width:3;stroke-linejoin:round;stroke-miterlimit:10;}
	.st8{fill:#F2F2F2;}
	.st9{fill:#FFFFFF;stroke:#000000;stroke-width:2.5;stroke-linejoin:round;stroke-miterlimit:10;}
	.st10{fill:none;stroke:#000000;stroke-width:2.5;stroke-linejoin:round;stroke-miterlimit:10;}
	.st11{fill:#FFFFFF;stroke:#558EFF;stroke-width:3;stroke-linejoin:round;stroke-miterlimit:10;}
	.st12{fill:none;stroke:#558EFF;stroke-width:3;stroke-linejoin:round;stroke-miterlimit:10;}
	.st13{fill:none;stroke:#558EFF;stroke-width:9;stroke-linejoin:round;stroke-miterlimit:10;}
	.st14{fill:#FFFFFF;stroke:#558EFF;stroke-width:9;stroke-linejoin:round;stroke-miterlimit:10;}
</style>
<rect id="bg" x="-2162" y="-301.9" class="st0" width="1080" height="812"/>
<g id="logo4">
	<rect x="-35" y="-29.1" class="st1" width="586" height="295.6"/>
	<g id="back" transform="translate(8.964 4.2527)" class="st2">
		<path class="st3" d="M134.7,217.7l-140-0.4L63.4,99.1L134.7,217.7z"/>
		<polygon class="st4" points="63.4,99.1 32.7,217.4 134.7,217.7 		"/>
		<path class="st5" d="M134.7,217.7l-140-0.4L63.4,99.1L134.7,217.7z"/>
	</g>
	<g id="three" transform="translate(8.964 4.2527)">
		<polygon class="st6" points="327.3,218 199.5,217.6 130.5,217.4 71.7,217.2 103.3,162.9 103.3,162.8 165.5,55.8 165.6,55.7 
			197.1,1.5 197.8,2.6 198.6,4 199.9,6.2 		"/>
		<g>
			<polygon class="st7" points="327.3,218.3 199.5,217.9 130.5,217.7 71.7,217.5 103.3,163.3 103.3,163.2 165.5,56.1 165.6,56 
				197.1,1.8 197.8,2.9 198.6,4.3 199.9,6.5 			"/>
			<path class="st7" d="M134.4,109.7l127.8,0.4l-62.7,107.8L134.4,109.7z"/>
			<path class="st7" d="M230.1,163.5l-63.5-0.2l31.1-53.6L230.1,163.5z"/>
			<path class="st7" d="M103.2,163.2l63.5,0.2L135.6,217L103.2,163.2z"/>
			<path class="st7" d="M165.5,56l63.5,0.2l-31.1,53.6L165.5,56z"/>
			<path class="st7" d="M230.1,163.5l63.5,0.2l-31.1,53.6L230.1,163.5z"/>
		</g>
	</g>
	<g id="second" transform="translate(8.964 4.2527)">
		<path class="st6" d="M409.7,218.3l-170-0.5l83.4-143.5L409.7,218.3z"/>
		<polygon class="st8" points="323.1,74.3 285.8,217.9 409.7,218.3 		"/>
		<path class="st7" d="M409.7,218.3l-170-0.5l83.4-143.5L409.7,218.3z"/>
	</g>
	<g id="front" transform="translate(8.964 4.2527)">
		<path class="st9" d="M463.7,218.6l-110-0.3l54-92.9L463.7,218.6z"/>
		<polygon class="st8" points="407.7,125.4 383.6,218.4 463.7,218.6 		"/>
		<path class="st10" d="M463.7,218.6l-110-0.3l54-92.9L463.7,218.6z"/>
	</g>
	
		<text transform="matrix(1 -4.071810e-03 4.071810e-03 1 13.9307 326.2278)" style="display:none;enable-background:new    ; font-family:'Rajdhani-SemiBold'; font-size:91.488px;">THREE PARK</text>
</g>
<g id="logo3_00000143586099539184336240000008177755885391866507_">
	<g id="back_00000073679053670121522940000009141504933089663636_" transform="translate(8.964 4.2527)">
		<path class="st6" d="M-446.5,217.3l-140-1l69.2-117.9L-446.5,217.3z"/>
		<polygon class="st8" points="-517.3,98.4 -548.5,216.6 -446.5,217.3 		"/>
		<path class="st7" d="M-446.5,217.3l-140-1l69.2-117.9L-446.5,217.3z"/>
	</g>
	<g id="three_00000166662628381711244290000009330292686264744107_" transform="translate(8.964 4.2527)">
		<polygon class="st6" points="-253.9,218.4 -381.6,217.5 -450.6,217 -509.5,216.6 -477.7,162.4 -477.6,162.3 -415,55.5 
			-414.9,55.5 -383.2,1.4 -382.5,2.5 -381.7,3.9 -380.4,6 		"/>
		<g>
			<polygon class="st7" points="-253.9,218.7 -381.6,217.8 -450.6,217.3 -509.5,216.9 -477.7,162.8 -477.6,162.6 -415,55.9 
				-414.9,55.8 -383.2,1.7 -382.5,2.8 -381.7,4.2 -380.4,6.4 			"/>
			<path class="st7" d="M-446.3,109.3l127.8,0.9l-63.1,107.6L-446.3,109.3z"/>
			<path class="st7" d="M-350.8,163.5l-63.5-0.5l31.3-53.4L-350.8,163.5z"/>
			<path class="st7" d="M-477.8,162.6l63.5,0.5l-31.3,53.4L-477.8,162.6z"/>
			<path class="st7" d="M-415.1,55.8l63.5,0.5l-31.3,53.5L-415.1,55.8z"/>
			<path class="st7" d="M-350.8,163.5l63.5,0.5l-31.3,53.4L-350.8,163.5z"/>
		</g>
	</g>
	<g id="second_00000026158149569123641120000007691664377760338615_" transform="translate(8.964 4.2527)">
		<path class="st6" d="M-171.5,219l-170-1.2l84-143.2L-171.5,219z"/>
		<polygon class="st8" points="-257.5,74.7 -295.3,218.2 -171.5,219 		"/>
		<path class="st7" d="M-171.5,219l-170-1.2l84-143.2L-171.5,219z"/>
	</g>
	<g id="front_00000003087530920720542470000004992907651360562075_" transform="translate(8.964 4.2527)">
		<path class="st9" d="M-117.5,219.6l-110-0.8l54.4-92.6L-117.5,219.6z"/>
		<polygon class="st8" points="-173.1,126.2 -197.6,219 -117.5,219.6 		"/>
		<path class="st10" d="M-117.5,219.6l-110-0.8l54.4-92.6L-117.5,219.6z"/>
	</g>
	<text transform="matrix(1 0 0 1 -567.6599 325.3143)" style="font-family:'Rajdhani-SemiBold'; font-size:91.488px;">THREE PARK</text>
</g>
<g id="logo2">
	<g id="back_00000037687395287820190430000006476957469111053982_" transform="translate(8.964 4.2527)">
		<path class="st11" d="M-1036.5,217.3l-140-1l69.2-117.9L-1036.5,217.3z"/>
		<polygon class="st8" points="-1107.3,98.4 -1138.5,216.6 -1036.5,217.3 		"/>
		<path class="st12" d="M-1036.5,217.3l-140-1l69.2-117.9L-1036.5,217.3z"/>
	</g>
	<g id="three_00000092450626989422264300000012295426178069716381_" transform="translate(8.964 4.2527)">
		<polygon class="st11" points="-843.9,218.4 -971.6,217.5 -1040.6,217 -1099.5,216.6 -1067.7,162.4 -1067.6,162.3 -1005,55.5 
			-1004.9,55.5 -973.2,1.4 -972.5,2.5 -971.7,3.9 -970.4,6 		"/>
		<g>
			<polygon class="st12" points="-843.9,218.7 -971.6,217.8 -1040.6,217.3 -1099.5,216.9 -1067.7,162.8 -1067.6,162.6 -1005,55.9 
				-1004.9,55.8 -973.2,1.7 -972.5,2.8 -971.7,4.2 -970.4,6.4 			"/>
			<path class="st12" d="M-1036.3,109.3l127.8,0.9l-63.1,107.6L-1036.3,109.3z"/>
			<path class="st12" d="M-940.8,163.5l-63.5-0.5l31.3-53.4L-940.8,163.5z"/>
			<path class="st12" d="M-1067.8,162.6l63.5,0.5l-31.3,53.4L-1067.8,162.6z"/>
			<path class="st12" d="M-1005,55.8l63.5,0.5l-31.3,53.5L-1005,55.8z"/>
			<path class="st12" d="M-940.8,163.5l63.5,0.5l-31.3,53.4L-940.8,163.5z"/>
		</g>
	</g>
	<g id="second_00000071557823049072813340000016396112805863495102_" transform="translate(8.964 4.2527)">
		<path class="st11" d="M-761.5,219l-170-1.2l84-143.2L-761.5,219z"/>
		<polygon class="st8" points="-847.5,74.7 -885.3,218.2 -761.5,219 		"/>
		<path class="st12" d="M-761.5,219l-170-1.2l84-143.2L-761.5,219z"/>
	</g>
	<g id="front_00000009566899397916216610000003098717731617396379_" transform="translate(8.964 4.2527)">
		<path class="st9" d="M-707.5,219.6l-110-0.8l54.4-92.6L-707.5,219.6z"/>
		<polygon class="st8" points="-763.1,126.2 -787.6,219 -707.5,219.6 		"/>
		<path class="st12" d="M-707.5,219.6l-110-0.8l54.4-92.6L-707.5,219.6z"/>
	</g>
	<text transform="matrix(1 0 0 1 -1157.6599 325.3143)" style="font-family:'Rajdhani-SemiBold'; font-size:91.488px;">THREE PARK</text>
</g>
<g id="logo2_copy">
	<g id="back_00000062894660051856507700000010838582259716134300_" transform="translate(8.964 4.2527)">
		<path class="st11" d="M-1065,628l-138.9-1l68.7-117L-1065,628z"/>
		<polygon class="st8" points="-1135.3,510 -1166.2,627.3 -1065,628 		"/>
		<path class="st13" d="M-1065,628l-138.9-1l68.7-117L-1065,628z"/>
	</g>
	<g id="three_00000016071949670943174270000007460439694387320233_" transform="translate(8.964 4.2527)">
		<polygon class="st14" points="-873.6,629 -1001.3,628.1 -1070.3,627.6 -1129.2,627.2 -1097.4,573 -1097.3,572.9 -1034.7,466.1 
			-1034.6,466.1 -1002.9,412 -1002.2,413.1 -1001.4,414.5 -1000.1,416.6 		"/>
		<g>
			<polygon class="st13" points="-873.6,629.3 -1001.3,628.4 -1070.3,627.9 -1129.2,627.5 -1097.4,573.4 -1097.3,573.2 
				-1034.7,466.5 -1034.6,466.4 -1002.9,412.3 -1002.2,413.4 -1001.4,414.8 -1000.1,417 			"/>
			<path class="st13" d="M-1066,519.9l127.8,0.9l-63.1,107.6L-1066,519.9z"/>
			<path class="st13" d="M-970.5,574.1l-63.5-0.5l31.3-53.4L-970.5,574.1z"/>
			<path class="st13" d="M-1097.5,573.2l63.5,0.5l-31.3,53.4L-1097.5,573.2z"/>
			<path class="st13" d="M-1034.7,466.4l63.5,0.5l-31.3,53.5L-1034.7,466.4z"/>
			<path class="st13" d="M-970.5,574.1l63.5,0.5l-31.3,53.4L-970.5,574.1z"/>
		</g>
	</g>
	<g id="second_00000127034246640454179420000005133329533706043798_" transform="translate(8.964 4.2527)">
		<path class="st11" d="M-791.2,629.8l-170-1.2l84-143.2L-791.2,629.8z"/>
		<polygon class="st8" points="-877.2,485.5 -915,629 -791.2,629.8 		"/>
		<path class="st13" d="M-791.2,629.8l-170-1.2l84-143.2L-791.2,629.8z"/>
	</g>
	<g id="front_00000006696873787172007710000011896809289901425039_" transform="translate(8.964 4.2527)">
		<path class="st9" d="M-737.2,630.3l-110-0.8l54.4-92.6L-737.2,630.3z"/>
		<polygon class="st8" points="-792.8,536.9 -817.3,629.7 -737.2,630.3 		"/>
		<path class="st13" d="M-737.2,630.3l-110-0.8l54.4-92.6L-737.2,630.3z"/>
	</g>
</g>
<g id="logo1">
	<g id="back_00000135689596607237945170000009097666273935632516_" transform="translate(8.964 4.2527)">
		<path class="st11" d="M-1684.6,174.3l-140-1l69.2-117.9L-1684.6,174.3z"/>
		<polygon class="st8" points="-1755.4,55.4 -1786.6,173.6 -1684.6,174.3 		"/>
		<path class="st12" d="M-1684.6,174.3l-140-1l69.2-117.9L-1684.6,174.3z"/>
	</g>
	<g id="three_00000114050845464452379190000011980951845215783838_" transform="translate(8.964 4.2527)">
		<polygon class="st11" points="-1492,175.4 -1619.7,174.5 -1688.7,174 -1747.6,173.6 -1715.8,119.4 -1715.7,119.3 -1653.1,12.5 
			-1653,12.5 -1621.2,-41.6 -1620.6,-40.5 -1619.8,-39.1 -1618.5,-37 		"/>
		<g>
			<polygon class="st12" points="-1492,175.7 -1619.7,174.8 -1688.7,174.3 -1747.6,173.9 -1715.8,119.8 -1715.7,119.6 -1653.1,12.9 
				-1653,12.8 -1621.2,-41.3 -1620.6,-40.2 -1619.8,-38.8 -1618.5,-36.6 			"/>
			<path class="st12" d="M-1684.4,66.3l127.8,0.9l-63.1,107.6L-1684.4,66.3z"/>
			<path class="st12" d="M-1588.9,120.5l-63.5-0.5l31.3-53.4L-1588.9,120.5z"/>
			<path class="st12" d="M-1715.9,119.6l63.5,0.5l-31.3,53.4L-1715.9,119.6z"/>
			<path class="st12" d="M-1653.2,12.8l63.5,0.5l-31.3,53.5L-1653.2,12.8z"/>
			<path class="st12" d="M-1588.9,120.5l63.5,0.5l-31.3,53.4L-1588.9,120.5z"/>
		</g>
	</g>
	<g id="second_00000156586529080820674140000004011740626335390879_" transform="translate(8.964 4.2527)">
		<path class="st11" d="M-1409.6,176l-170-1.2l84-143.2L-1409.6,176z"/>
		<polygon class="st8" points="-1495.6,31.7 -1533.4,175.2 -1409.6,176 		"/>
		<path class="st12" d="M-1409.6,176l-170-1.2l84-143.2L-1409.6,176z"/>
	</g>
	<g id="front_00000078040232279386279730000006224336784711662253_" transform="translate(8.964 4.2527)">
		<path class="st11" d="M-1355.6,176.6l-110-0.8l54.3-92.6L-1355.6,176.6z"/>
		<polygon class="st8" points="-1411.2,83.2 -1435.7,176 -1355.6,176.6 		"/>
		<path class="st12" d="M-1355.6,176.6l-110-0.8l54.3-92.6L-1355.6,176.6z"/>
	</g>
	
		<text transform="matrix(1 0 0 1 -1798.9563 319.0003)" style="fill:#1A1A1A; font-family:'SquarePeg-Regular'; font-size:161.5129px;">Three Park</text>
</g>
</svg>
