<svg xmlns="http://www.w3.org/2000/svg" viewBox="0 0 478 227.2"><defs><style>.cls-1,.cls-4,.cls-5{fill:#fff;}.cls-1,.cls-3,.cls-4{stroke:#558eff;}.cls-1,.cls-3,.cls-4,.cls-5{stroke-linejoin:round;}.cls-1{stroke-width:3px;}.cls-2{fill:#f2f2f2;}.cls-3{fill:none;}.cls-3,.cls-4{stroke-width:9px;}.cls-5{stroke:#000;stroke-width:2.5px;}</style></defs><g id="Layer_2" data-name="Layer 2"><g id="Layer_1-2" data-name="Layer 1"><g id="logo2_copy" data-name="logo2 copy"><g id="back"><path class="cls-1" d="M144.5,220.4l-140-1L73.7,101.5Z"/><polygon class="cls-2" points="73.7 101.5 42.5 219.7 144.5 220.4 73.7 101.5"/><path class="cls-3" d="M144.5,220.4l-140-1L73.7,101.5Z"/></g><g id="three"><polygon class="cls-4" points="337.1 221.5 209.4 220.6 140.4 220.1 81.5 219.7 113.3 165.5 113.4 165.4 176 58.6 176.1 58.6 207.8 4.5 208.5 5.6 209.3 7 210.6 9.1 337.1 221.5"/><polygon class="cls-3" points="337.1 221.8 209.4 220.9 140.4 220.4 81.5 220 113.3 165.9 113.4 165.7 176 59 176.1 58.9 207.8 4.8 208.5 5.9 209.3 7.3 210.6 9.5 337.1 221.8"/><path class="cls-3" d="M144.7,112.4l127.8.9L209.4,220.9Z"/><path class="cls-3" d="M240.2,166.6l-63.5-.5L208,112.7Z"/><path class="cls-3" d="M113.2,165.7l63.5.5-31.3,53.4Z"/><path class="cls-3" d="M176,58.9l63.5.5-31.3,53.5Z"/><path class="cls-3" d="M240.2,166.6l63.5.5-31.3,53.4Z"/></g><g id="second"><path class="cls-1" d="M419.5,222.1l-170-1.2,84-143.2Z"/><polygon class="cls-2" points="333.5 77.8 295.7 221.3 419.5 222.1 333.5 77.8"/><path class="cls-3" d="M419.5,222.1l-170-1.2,84-143.2Z"/></g><g id="front"><path class="cls-5" d="M473.5,222.7l-110-.8,54.4-92.6Z"/><polygon class="cls-2" points="417.9 129.3 393.4 222.1 473.5 222.7 417.9 129.3"/><path class="cls-3" d="M473.5,222.7l-110-.8,54.4-92.6Z"/></g></g></g></g></svg>