<svg xmlns="http://www.w3.org/2000/svg" viewBox="0 0 472 221.2"><defs><style>.cls-1,.cls-4{fill:#fff;}.cls-1,.cls-3{stroke:#558eff;stroke-width:3px;}.cls-1,.cls-3,.cls-4{stroke-linejoin:round;}.cls-2{fill:#f2f2f2;}.cls-3{fill:none;}.cls-4{stroke:#000;stroke-width:2.5px;}</style></defs><g id="Layer_2" data-name="Layer 2"><g id="Layer_1-2" data-name="Layer 1"><g id="logo2"><g id="back"><path class="cls-1" d="M141.5,217.4l-140-1L70.7,98.5Z"/><polygon class="cls-2" points="70.7 98.5 39.5 216.7 141.5 217.4 70.7 98.5"/><path class="cls-3" d="M141.5,217.4l-140-1L70.7,98.5Z"/></g><g id="three"><polygon class="cls-1" points="334.1 218.5 206.4 217.6 137.4 217.1 78.5 216.7 110.3 162.5 110.4 162.4 173 55.6 173.1 55.6 204.8 1.5 205.5 2.6 206.3 4 207.6 6.1 334.1 218.5"/><polygon class="cls-3" points="334.1 218.8 206.4 217.9 137.4 217.4 78.5 217 110.3 162.9 110.4 162.7 173 56 173.1 55.9 204.8 1.8 205.5 2.9 206.3 4.3 207.6 6.5 334.1 218.8"/><path class="cls-3" d="M141.7,109.4l127.8.9L206.4,217.9Z"/><path class="cls-3" d="M237.2,163.6l-63.5-.5L205,109.7Z"/><path class="cls-3" d="M110.2,162.7l63.5.5-31.3,53.4Z"/><path class="cls-3" d="M173,55.9l63.5.5-31.3,53.5Z"/><path class="cls-3" d="M237.2,163.6l63.5.5-31.3,53.4Z"/></g><g id="second"><path class="cls-1" d="M416.5,219.1l-170-1.2,84-143.2Z"/><polygon class="cls-2" points="330.5 74.8 292.7 218.3 416.5 219.1 330.5 74.8"/><path class="cls-3" d="M416.5,219.1l-170-1.2,84-143.2Z"/></g><g id="front"><path class="cls-4" d="M470.5,219.7l-110-.8,54.4-92.6Z"/><polygon class="cls-2" points="414.9 126.3 390.4 219.1 470.5 219.7 414.9 126.3"/><path class="cls-3" d="M470.5,219.7l-110-.8,54.4-92.6Z"/></g></g></g></g></svg>