<svg xmlns="http://www.w3.org/2000/svg" viewBox="0 0 475.71 227.26"><defs><style>.cls-1,.cls-4,.cls-5{fill:#fff;}.cls-1,.cls-3,.cls-4{stroke:#558eff;}.cls-1,.cls-3,.cls-4,.cls-5{stroke-linejoin:round;}.cls-1{stroke-width:3px;}.cls-2{fill:#f2f2f2;}.cls-3{fill:none;}.cls-3,.cls-4{stroke-width:9px;}.cls-5{stroke:#000;stroke-width:2.5px;}</style></defs><g id="Layer_2" data-name="Layer 2"><g id="Layer_1-2" data-name="Layer 1"><g id="logo2_copy" data-name="logo2 copy"><g id="back"><path class="cls-1" d="M143.4,220.48l-138.9-1,68.66-117Z"/><polygon class="cls-2" points="73.16 102.51 42.2 219.78 143.4 220.48 73.16 102.51"/><path class="cls-3" d="M143.4,220.48l-138.9-1,68.66-117Z"/></g><g id="three"><polygon class="cls-4" points="334.81 221.5 207.11 220.6 138.11 220.1 79.21 219.7 111.01 165.5 111.11 165.4 173.71 58.6 173.81 58.6 205.51 4.5 206.21 5.6 207.01 7 208.31 9.1 334.81 221.5"/><polygon class="cls-3" points="334.81 221.8 207.11 220.9 138.11 220.4 79.21 220 111.01 165.9 111.11 165.7 173.71 59 173.81 58.9 205.51 4.8 206.21 5.9 207.01 7.3 208.31 9.5 334.81 221.8"/><path class="cls-3" d="M142.41,112.4l127.8.9-63.1,107.6Z"/><path class="cls-3" d="M237.91,166.6l-63.5-.5,31.3-53.4Z"/><path class="cls-3" d="M110.91,165.7l63.5.5-31.3,53.4Z"/><path class="cls-3" d="M173.71,58.9l63.5.5-31.3,53.5Z"/><path class="cls-3" d="M237.91,166.6l63.5.5-31.3,53.4Z"/></g><g id="second"><path class="cls-1" d="M417.21,222.35l-170-1.2,84-143.2Z"/><polygon class="cls-2" points="331.21 78.05 293.41 221.55 417.21 222.35 331.21 78.05"/><path class="cls-3" d="M417.21,222.35l-170-1.2,84-143.2Z"/></g><g id="front"><path class="cls-5" d="M471.21,222.76l-110-.8,54.4-92.6Z"/><polygon class="cls-2" points="415.61 129.36 391.11 222.16 471.21 222.76 415.61 129.36"/><path class="cls-3" d="M471.21,222.76l-110-.8,54.4-92.6Z"/></g></g></g></g></svg>