<svg id="visual" viewBox="0 0 450 900" width="450" height="900" xmlns="http://www.w3.org/2000/svg" xmlns:xlink="http://www.w3.org/1999/xlink" version="1.1"><rect x="0" y="0" width="450" height="900" fill="#040a11"></rect><path d="M0 87L5.3 86.7C10.7 86.3 21.3 85.7 32 81.5C42.7 77.3 53.3 69.7 64 70.8C74.7 72 85.3 82 96.2 86.3C107 90.7 118 89.3 128.8 85.2C139.7 81 150.3 74 161 70.5C171.7 67 182.3 67 193 72.8C203.7 78.7 214.3 90.3 225 90.7C235.7 91 246.3 80 257 73.7C267.7 67.3 278.3 65.7 289 71.3C299.7 77 310.3 90 321.2 95.5C332 101 343 99 353.8 96.8C364.7 94.7 375.3 92.3 386 88C396.7 83.7 407.3 77.3 418 76.8C428.7 76.3 439.3 81.7 444.7 84.3L450 87L450 901L444.7 901C439.3 901 428.7 901 418 901C407.3 901 396.7 901 386 901C375.3 901 364.7 901 353.8 901C343 901 332 901 321.2 901C310.3 901 299.7 901 289 901C278.3 901 267.7 901 257 901C246.3 901 235.7 901 225 901C214.3 901 203.7 901 193 901C182.3 901 171.7 901 161 901C150.3 901 139.7 901 128.8 901C118 901 107 901 96.2 901C85.3 901 74.7 901 64 901C53.3 901 42.7 901 32 901C21.3 901 10.7 901 5.3 901L0 901Z" fill="#022c6a"></path><path d="M0 158L5.3 156C10.7 154 21.3 150 32 152.3C42.7 154.7 53.3 163.3 64 166.5C74.7 169.7 85.3 167.3 96.2 167.7C107 168 118 171 128.8 173.5C139.7 176 150.3 178 161 180C171.7 182 182.3 184 193 182.7C203.7 181.3 214.3 176.7 225 173.3C235.7 170 246.3 168 257 162.5C267.7 157 278.3 148 289 150C299.7 152 310.3 165 321.2 167.8C332 170.7 343 163.3 353.8 157.7C364.7 152 375.3 148 386 146.3C396.7 144.7 407.3 145.3 418 147C428.7 148.7 439.3 151.3 444.7 152.7L450 154L450 901L444.7 901C439.3 901 428.7 901 418 901C407.3 901 396.7 901 386 901C375.3 901 364.7 901 353.8 901C343 901 332 901 321.2 901C310.3 901 299.7 901 289 901C278.3 901 267.7 901 257 901C246.3 901 235.7 901 225 901C214.3 901 203.7 901 193 901C182.3 901 171.7 901 161 901C150.3 901 139.7 901 128.8 901C118 901 107 901 96.2 901C85.3 901 74.7 901 64 901C53.3 901 42.7 901 32 901C21.3 901 10.7 901 5.3 901L0 901Z" fill="#002960"></path><path d="M0 229L5.3 233C10.7 237 21.3 245 32 244.7C42.7 244.3 53.3 235.7 64 236.2C74.7 236.7 85.3 246.3 96.2 248.3C107 250.3 118 244.7 128.8 241.8C139.7 239 150.3 239 161 237.8C171.7 236.7 182.3 234.3 193 233.7C203.7 233 214.3 234 225 238.2C235.7 242.3 246.3 249.7 257 250C267.7 250.3 278.3 243.7 289 239.7C299.7 235.7 310.3 234.3 321.2 235.8C332 237.3 343 241.7 353.8 243.2C364.7 244.7 375.3 243.3 386 239.2C396.7 235 407.3 228 418 226.3C428.7 224.7 439.3 228.3 444.7 230.2L450 232L450 901L444.7 901C439.3 901 428.7 901 418 901C407.3 901 396.7 901 386 901C375.3 901 364.7 901 353.8 901C343 901 332 901 321.2 901C310.3 901 299.7 901 289 901C278.3 901 267.7 901 257 901C246.3 901 235.7 901 225 901C214.3 901 203.7 901 193 901C182.3 901 171.7 901 161 901C150.3 901 139.7 901 128.8 901C118 901 107 901 96.2 901C85.3 901 74.7 901 64 901C53.3 901 42.7 901 32 901C21.3 901 10.7 901 5.3 901L0 901Z" fill="#002656"></path><path d="M0 342L5.3 336.5C10.7 331 21.3 320 32 314.5C42.7 309 53.3 309 64 315.5C74.7 322 85.3 335 96.2 341.3C107 347.7 118 347.3 128.8 342.7C139.7 338 150.3 329 161 325.3C171.7 321.7 182.3 323.3 193 323C203.7 322.7 214.3 320.3 225 320.8C235.7 321.3 246.3 324.7 257 326C267.7 327.3 278.3 326.7 289 325.5C299.7 324.3 310.3 322.7 321.2 324.3C332 326 343 331 353.8 334.5C364.7 338 375.3 340 386 338C396.7 336 407.3 330 418 326.2C428.7 322.3 439.3 320.7 444.7 319.8L450 319L450 901L444.7 901C439.3 901 428.7 901 418 901C407.3 901 396.7 901 386 901C375.3 901 364.7 901 353.8 901C343 901 332 901 321.2 901C310.3 901 299.7 901 289 901C278.3 901 267.7 901 257 901C246.3 901 235.7 901 225 901C214.3 901 203.7 901 193 901C182.3 901 171.7 901 161 901C150.3 901 139.7 901 128.8 901C118 901 107 901 96.2 901C85.3 901 74.7 901 64 901C53.3 901 42.7 901 32 901C21.3 901 10.7 901 5.3 901L0 901Z" fill="#00234c"></path><path d="M0 424L5.3 419.3C10.7 414.7 21.3 405.3 32 401.2C42.7 397 53.3 398 64 397.7C74.7 397.3 85.3 395.7 96.2 399C107 402.3 118 410.7 128.8 411.7C139.7 412.7 150.3 406.3 161 408C171.7 409.7 182.3 419.3 193 421.8C203.7 424.3 214.3 419.7 225 419.3C235.7 419 246.3 423 257 422.3C267.7 421.7 278.3 416.3 289 410.3C299.7 404.3 310.3 397.7 321.2 396.7C332 395.7 343 400.3 353.8 401C364.7 401.7 375.3 398.3 386 395.5C396.7 392.7 407.3 390.3 418 393C428.7 395.7 439.3 403.3 444.7 407.2L450 411L450 901L444.7 901C439.3 901 428.7 901 418 901C407.3 901 396.7 901 386 901C375.3 901 364.7 901 353.8 901C343 901 332 901 321.2 901C310.3 901 299.7 901 289 901C278.3 901 267.7 901 257 901C246.3 901 235.7 901 225 901C214.3 901 203.7 901 193 901C182.3 901 171.7 901 161 901C150.3 901 139.7 901 128.8 901C118 901 107 901 96.2 901C85.3 901 74.7 901 64 901C53.3 901 42.7 901 32 901C21.3 901 10.7 901 5.3 901L0 901Z" fill="#002042"></path><path d="M0 505L5.3 503.2C10.7 501.3 21.3 497.7 32 494.8C42.7 492 53.3 490 64 492.2C74.7 494.3 85.3 500.7 96.2 498.8C107 497 118 487 128.8 487.3C139.7 487.7 150.3 498.3 161 498.3C171.7 498.3 182.3 487.7 193 487.5C203.7 487.3 214.3 497.7 225 503.5C235.7 509.3 246.3 510.7 257 505.7C267.7 500.7 278.3 489.3 289 487.7C299.7 486 310.3 494 321.2 494.5C332 495 343 488 353.8 486.3C364.7 484.7 375.3 488.3 386 491.2C396.7 494 407.3 496 418 495C428.7 494 439.3 490 444.7 488L450 486L450 901L444.7 901C439.3 901 428.7 901 418 901C407.3 901 396.7 901 386 901C375.3 901 364.7 901 353.8 901C343 901 332 901 321.2 901C310.3 901 299.7 901 289 901C278.3 901 267.7 901 257 901C246.3 901 235.7 901 225 901C214.3 901 203.7 901 193 901C182.3 901 171.7 901 161 901C150.3 901 139.7 901 128.8 901C118 901 107 901 96.2 901C85.3 901 74.7 901 64 901C53.3 901 42.7 901 32 901C21.3 901 10.7 901 5.3 901L0 901Z" fill="#011c38"></path><path d="M0 553L5.3 555.2C10.7 557.3 21.3 561.7 32 568.3C42.7 575 53.3 584 64 588.7C74.7 593.3 85.3 593.7 96.2 588.2C107 582.7 118 571.3 128.8 565.5C139.7 559.7 150.3 559.3 161 557.8C171.7 556.3 182.3 553.7 193 551.7C203.7 549.7 214.3 548.3 225 554.8C235.7 561.3 246.3 575.7 257 578.7C267.7 581.7 278.3 573.3 289 566.7C299.7 560 310.3 555 321.2 558.8C332 562.7 343 575.3 353.8 579.5C364.7 583.7 375.3 579.3 386 576.3C396.7 573.3 407.3 571.7 418 567.3C428.7 563 439.3 556 444.7 552.5L450 549L450 901L444.7 901C439.3 901 428.7 901 418 901C407.3 901 396.7 901 386 901C375.3 901 364.7 901 353.8 901C343 901 332 901 321.2 901C310.3 901 299.7 901 289 901C278.3 901 267.7 901 257 901C246.3 901 235.7 901 225 901C214.3 901 203.7 901 193 901C182.3 901 171.7 901 161 901C150.3 901 139.7 901 128.8 901C118 901 107 901 96.2 901C85.3 901 74.7 901 64 901C53.3 901 42.7 901 32 901C21.3 901 10.7 901 5.3 901L0 901Z" fill="#04192e"></path><path d="M0 669L5.3 664.2C10.7 659.3 21.3 649.7 32 644C42.7 638.3 53.3 636.7 64 637.5C74.7 638.3 85.3 641.7 96.2 643.3C107 645 118 645 128.8 643.8C139.7 642.7 150.3 640.3 161 644.7C171.7 649 182.3 660 193 663C203.7 666 214.3 661 225 656.7C235.7 652.3 246.3 648.7 257 651.3C267.7 654 278.3 663 289 665C299.7 667 310.3 662 321.2 660.3C332 658.7 343 660.3 353.8 663.5C364.7 666.7 375.3 671.3 386 667C396.7 662.7 407.3 649.3 418 646C428.7 642.7 439.3 649.3 444.7 652.7L450 656L450 901L444.7 901C439.3 901 428.7 901 418 901C407.3 901 396.7 901 386 901C375.3 901 364.7 901 353.8 901C343 901 332 901 321.2 901C310.3 901 299.7 901 289 901C278.3 901 267.7 901 257 901C246.3 901 235.7 901 225 901C214.3 901 203.7 901 193 901C182.3 901 171.7 901 161 901C150.3 901 139.7 901 128.8 901C118 901 107 901 96.2 901C85.3 901 74.7 901 64 901C53.3 901 42.7 901 32 901C21.3 901 10.7 901 5.3 901L0 901Z" fill="#061524"></path><path d="M0 715L5.3 721.3C10.7 727.7 21.3 740.3 32 741.2C42.7 742 53.3 731 64 729.8C74.7 728.7 85.3 737.3 96.2 736.3C107 735.3 118 724.7 128.8 723.7C139.7 722.7 150.3 731.3 161 737.8C171.7 744.3 182.3 748.7 193 751.3C203.7 754 214.3 755 225 755.5C235.7 756 246.3 756 257 755.8C267.7 755.7 278.3 755.3 289 752.5C299.7 749.7 310.3 744.3 321.2 742.7C332 741 343 743 353.8 745.3C364.7 747.7 375.3 750.3 386 745.8C396.7 741.3 407.3 729.7 418 729.2C428.7 728.7 439.3 739.3 444.7 744.7L450 750L450 901L444.7 901C439.3 901 428.7 901 418 901C407.3 901 396.7 901 386 901C375.3 901 364.7 901 353.8 901C343 901 332 901 321.2 901C310.3 901 299.7 901 289 901C278.3 901 267.7 901 257 901C246.3 901 235.7 901 225 901C214.3 901 203.7 901 193 901C182.3 901 171.7 901 161 901C150.3 901 139.7 901 128.8 901C118 901 107 901 96.2 901C85.3 901 74.7 901 64 901C53.3 901 42.7 901 32 901C21.3 901 10.7 901 5.3 901L0 901Z" fill="#06101b"></path><path d="M0 825L5.3 825.8C10.7 826.7 21.3 828.3 32 828.2C42.7 828 53.3 826 64 821.5C74.7 817 85.3 810 96.2 810C107 810 118 817 128.8 821.5C139.7 826 150.3 828 161 823.5C171.7 819 182.3 808 193 808.3C203.7 808.7 214.3 820.3 225 821.5C235.7 822.7 246.3 813.3 257 814.8C267.7 816.3 278.3 828.7 289 830.7C299.7 832.7 310.3 824.3 321.2 823.3C332 822.3 343 828.7 353.8 826.8C364.7 825 375.3 815 386 813.8C396.7 812.7 407.3 820.3 418 825.5C428.7 830.7 439.3 833.3 444.7 834.7L450 836L450 901L444.7 901C439.3 901 428.7 901 418 901C407.3 901 396.7 901 386 901C375.3 901 364.7 901 353.8 901C343 901 332 901 321.2 901C310.3 901 299.7 901 289 901C278.3 901 267.7 901 257 901C246.3 901 235.7 901 225 901C214.3 901 203.7 901 193 901C182.3 901 171.7 901 161 901C150.3 901 139.7 901 128.8 901C118 901 107 901 96.2 901C85.3 901 74.7 901 64 901C53.3 901 42.7 901 32 901C21.3 901 10.7 901 5.3 901L0 901Z" fill="#040a11"></path></svg>