<svg id="visual" viewBox="0 0 450 900" width="450" height="900" xmlns="http://www.w3.org/2000/svg" xmlns:xlink="http://www.w3.org/1999/xlink" version="1.1"><rect x="0" y="0" width="450" height="900" fill="#040A11"></rect><path d="M0 143L9.3 138.3C18.7 133.7 37.3 124.3 56.2 110.5C75 96.7 94 78.3 112.8 73.3C131.7 68.3 150.3 76.7 169 85.3C187.7 94 206.3 103 225 105.7C243.7 108.3 262.3 104.7 281.2 109.8C300 115 319 129 337.8 136.7C356.7 144.3 375.3 145.7 394 132.5C412.7 119.3 431.3 91.7 440.7 77.8L450 64L450 901L440.7 901C431.3 901 412.7 901 394 901C375.3 901 356.7 901 337.8 901C319 901 300 901 281.2 901C262.3 901 243.7 901 225 901C206.3 901 187.7 901 169 901C150.3 901 131.7 901 112.8 901C94 901 75 901 56.2 901C37.3 901 18.7 901 9.3 901L0 901Z" fill="#022c6a"></path><path d="M0 228L9.3 222.2C18.7 216.3 37.3 204.7 56.2 203.2C75 201.7 94 210.3 112.8 218.8C131.7 227.3 150.3 235.7 169 228.2C187.7 220.7 206.3 197.3 225 187.3C243.7 177.3 262.3 180.7 281.2 190C300 199.3 319 214.7 337.8 217.3C356.7 220 375.3 210 394 212C412.7 214 431.3 228 440.7 235L450 242L450 901L440.7 901C431.3 901 412.7 901 394 901C375.3 901 356.7 901 337.8 901C319 901 300 901 281.2 901C262.3 901 243.7 901 225 901C206.3 901 187.7 901 169 901C150.3 901 131.7 901 112.8 901C94 901 75 901 56.2 901C37.3 901 18.7 901 9.3 901L0 901Z" fill="#00285d"></path><path d="M0 276L9.3 273C18.7 270 37.3 264 56.2 264.2C75 264.3 94 270.7 112.8 280.7C131.7 290.7 150.3 304.3 169 309.5C187.7 314.7 206.3 311.3 225 308C243.7 304.7 262.3 301.3 281.2 296.8C300 292.3 319 286.7 337.8 283C356.7 279.3 375.3 277.7 394 272.8C412.7 268 431.3 260 440.7 256L450 252L450 901L440.7 901C431.3 901 412.7 901 394 901C375.3 901 356.7 901 337.8 901C319 901 300 901 281.2 901C262.3 901 243.7 901 225 901C206.3 901 187.7 901 169 901C150.3 901 131.7 901 112.8 901C94 901 75 901 56.2 901C37.3 901 18.7 901 9.3 901L0 901Z" fill="#002450"></path><path d="M0 417L9.3 418.8C18.7 420.7 37.3 424.3 56.2 414.5C75 404.7 94 381.3 112.8 378C131.7 374.7 150.3 391.3 169 396.7C187.7 402 206.3 396 225 402.7C243.7 409.3 262.3 428.7 281.2 424.3C300 420 319 392 337.8 381.3C356.7 370.7 375.3 377.3 394 380C412.7 382.7 431.3 381.3 440.7 380.7L450 380L450 901L440.7 901C431.3 901 412.7 901 394 901C375.3 901 356.7 901 337.8 901C319 901 300 901 281.2 901C262.3 901 243.7 901 225 901C206.3 901 187.7 901 169 901C150.3 901 131.7 901 112.8 901C94 901 75 901 56.2 901C37.3 901 18.7 901 9.3 901L0 901Z" fill="#002043"></path><path d="M0 489L9.3 489C18.7 489 37.3 489 56.2 486.3C75 483.7 94 478.3 112.8 477.3C131.7 476.3 150.3 479.7 169 488.3C187.7 497 206.3 511 225 512.5C243.7 514 262.3 503 281.2 506.2C300 509.3 319 526.7 337.8 520.3C356.7 514 375.3 484 394 484.3C412.7 484.7 431.3 515.3 440.7 530.7L450 546L450 901L440.7 901C431.3 901 412.7 901 394 901C375.3 901 356.7 901 337.8 901C319 901 300 901 281.2 901C262.3 901 243.7 901 225 901C206.3 901 187.7 901 169 901C150.3 901 131.7 901 112.8 901C94 901 75 901 56.2 901C37.3 901 18.7 901 9.3 901L0 901Z" fill="#021c37"></path><path d="M0 638L9.3 628.8C18.7 619.7 37.3 601.3 56.2 586.7C75 572 94 561 112.8 561.3C131.7 561.7 150.3 573.3 169 580.3C187.7 587.3 206.3 589.7 225 590C243.7 590.3 262.3 588.7 281.2 588C300 587.3 319 587.7 337.8 585.2C356.7 582.7 375.3 577.3 394 573.8C412.7 570.3 431.3 568.7 440.7 567.8L450 567L450 901L440.7 901C431.3 901 412.7 901 394 901C375.3 901 356.7 901 337.8 901C319 901 300 901 281.2 901C262.3 901 243.7 901 225 901C206.3 901 187.7 901 169 901C150.3 901 131.7 901 112.8 901C94 901 75 901 56.2 901C37.3 901 18.7 901 9.3 901L0 901Z" fill="#05172a"></path><path d="M0 713L9.3 705.7C18.7 698.3 37.3 683.7 56.2 682C75 680.3 94 691.7 112.8 689.7C131.7 687.7 150.3 672.3 169 677.7C187.7 683 206.3 709 225 712C243.7 715 262.3 695 281.2 683.2C300 671.3 319 667.7 337.8 667.3C356.7 667 375.3 670 394 676C412.7 682 431.3 691 440.7 695.5L450 700L450 901L440.7 901C431.3 901 412.7 901 394 901C375.3 901 356.7 901 337.8 901C319 901 300 901 281.2 901C262.3 901 243.7 901 225 901C206.3 901 187.7 901 169 901C150.3 901 131.7 901 112.8 901C94 901 75 901 56.2 901C37.3 901 18.7 901 9.3 901L0 901Z" fill="#06121e"></path><path d="M0 825L9.3 823.5C18.7 822 37.3 819 56.2 815.5C75 812 94 808 112.8 800C131.7 792 150.3 780 169 784.7C187.7 789.3 206.3 810.7 225 810C243.7 809.3 262.3 786.7 281.2 777.8C300 769 319 774 337.8 779.8C356.7 785.7 375.3 792.3 394 789.2C412.7 786 431.3 773 440.7 766.5L450 760L450 901L440.7 901C431.3 901 412.7 901 394 901C375.3 901 356.7 901 337.8 901C319 901 300 901 281.2 901C262.3 901 243.7 901 225 901C206.3 901 187.7 901 169 901C150.3 901 131.7 901 112.8 901C94 901 75 901 56.2 901C37.3 901 18.7 901 9.3 901L0 901Z" fill="#040a11"></path></svg>