<svg id="visual" viewBox="0 0 450 900" width="450" height="900" xmlns="http://www.w3.org/2000/svg" xmlns:xlink="http://www.w3.org/1999/xlink" version="1.1"><rect x="0" y="0" width="450" height="900" fill="#2e3133"></rect><path d="M0 93L5.3 87.5C10.7 82 21.3 71 32 67.7C42.7 64.3 53.3 68.7 64 74.7C74.7 80.7 85.3 88.3 96.2 90.5C107 92.7 118 89.3 128.8 83.2C139.7 77 150.3 68 161 67C171.7 66 182.3 73 193 80.2C203.7 87.3 214.3 94.7 225 91C235.7 87.3 246.3 72.7 257 71.3C267.7 70 278.3 82 289 89.8C299.7 97.7 310.3 101.3 321.2 98.5C332 95.7 343 86.3 353.8 83.3C364.7 80.3 375.3 83.7 386 86.3C396.7 89 407.3 91 418 86.3C428.7 81.7 439.3 70.3 444.7 64.7L450 59L450 901L444.7 901C439.3 901 428.7 901 418 901C407.3 901 396.7 901 386 901C375.3 901 364.7 901 353.8 901C343 901 332 901 321.2 901C310.3 901 299.7 901 289 901C278.3 901 267.7 901 257 901C246.3 901 235.7 901 225 901C214.3 901 203.7 901 193 901C182.3 901 171.7 901 161 901C150.3 901 139.7 901 128.8 901C118 901 107 901 96.2 901C85.3 901 74.7 901 64 901C53.3 901 42.7 901 32 901C21.3 901 10.7 901 5.3 901L0 901Z" fill="#2e3133"></path><path d="M0 152L5.3 157.8C10.7 163.7 21.3 175.3 32 180.8C42.7 186.3 53.3 185.7 64 179.3C74.7 173 85.3 161 96.2 160.8C107 160.7 118 172.3 128.8 178.3C139.7 184.3 150.3 184.7 161 184.7C171.7 184.7 182.3 184.3 193 184C203.7 183.7 214.3 183.3 225 177.3C235.7 171.3 246.3 159.7 257 153.2C267.7 146.7 278.3 145.3 289 151.8C299.7 158.3 310.3 172.7 321.2 171.7C332 170.7 343 154.3 353.8 147.7C364.7 141 375.3 144 386 151.3C396.7 158.7 407.3 170.3 418 174.3C428.7 178.3 439.3 174.7 444.7 172.8L450 171L450 901L444.7 901C439.3 901 428.7 901 418 901C407.3 901 396.7 901 386 901C375.3 901 364.7 901 353.8 901C343 901 332 901 321.2 901C310.3 901 299.7 901 289 901C278.3 901 267.7 901 257 901C246.3 901 235.7 901 225 901C214.3 901 203.7 901 193 901C182.3 901 171.7 901 161 901C150.3 901 139.7 901 128.8 901C118 901 107 901 96.2 901C85.3 901 74.7 901 64 901C53.3 901 42.7 901 32 901C21.3 901 10.7 901 5.3 901L0 901Z" fill="#293741"></path><path d="M0 237L5.3 234.3C10.7 231.7 21.3 226.3 32 226.2C42.7 226 53.3 231 64 236.2C74.7 241.3 85.3 246.7 96.2 244.8C107 243 118 234 128.8 231.7C139.7 229.3 150.3 233.7 161 234C171.7 234.3 182.3 230.7 193 233.2C203.7 235.7 214.3 244.3 225 244.8C235.7 245.3 246.3 237.7 257 234.3C267.7 231 278.3 232 289 233.7C299.7 235.3 310.3 237.7 321.2 237.8C332 238 343 236 353.8 234.5C364.7 233 375.3 232 386 235.3C396.7 238.7 407.3 246.3 418 252.3C428.7 258.3 439.3 262.7 444.7 264.8L450 267L450 901L444.7 901C439.3 901 428.7 901 418 901C407.3 901 396.7 901 386 901C375.3 901 364.7 901 353.8 901C343 901 332 901 321.2 901C310.3 901 299.7 901 289 901C278.3 901 267.7 901 257 901C246.3 901 235.7 901 225 901C214.3 901 203.7 901 193 901C182.3 901 171.7 901 161 901C150.3 901 139.7 901 128.8 901C118 901 107 901 96.2 901C85.3 901 74.7 901 64 901C53.3 901 42.7 901 32 901C21.3 901 10.7 901 5.3 901L0 901Z" fill="#223d50"></path><path d="M0 348L5.3 347.7C10.7 347.3 21.3 346.7 32 346.3C42.7 346 53.3 346 64 340.5C74.7 335 85.3 324 96.2 318.7C107 313.3 118 313.7 128.8 312.2C139.7 310.7 150.3 307.3 161 312.3C171.7 317.3 182.3 330.7 193 337.7C203.7 344.7 214.3 345.3 225 343.7C235.7 342 246.3 338 257 335.2C267.7 332.3 278.3 330.7 289 331.3C299.7 332 310.3 335 321.2 336C332 337 343 336 353.8 333C364.7 330 375.3 325 386 321.5C396.7 318 407.3 316 418 313.2C428.7 310.3 439.3 306.7 444.7 304.8L450 303L450 901L444.7 901C439.3 901 428.7 901 418 901C407.3 901 396.7 901 386 901C375.3 901 364.7 901 353.8 901C343 901 332 901 321.2 901C310.3 901 299.7 901 289 901C278.3 901 267.7 901 257 901C246.3 901 235.7 901 225 901C214.3 901 203.7 901 193 901C182.3 901 171.7 901 161 901C150.3 901 139.7 901 128.8 901C118 901 107 901 96.2 901C85.3 901 74.7 901 64 901C53.3 901 42.7 901 32 901C21.3 901 10.7 901 5.3 901L0 901Z" fill="#184360"></path><path d="M0 395L5.3 396.5C10.7 398 21.3 401 32 401C42.7 401 53.3 398 64 394.7C74.7 391.3 85.3 387.7 96.2 390.8C107 394 118 404 128.8 406.7C139.7 409.3 150.3 404.7 161 407.8C171.7 411 182.3 422 193 426.7C203.7 431.3 214.3 429.7 225 428.2C235.7 426.7 246.3 425.3 257 418.2C267.7 411 278.3 398 289 395C299.7 392 310.3 399 321.2 399.3C332 399.7 343 393.3 353.8 390.3C364.7 387.3 375.3 387.7 386 390.5C396.7 393.3 407.3 398.7 418 402.5C428.7 406.3 439.3 408.7 444.7 409.8L450 411L450 901L444.7 901C439.3 901 428.7 901 418 901C407.3 901 396.7 901 386 901C375.3 901 364.7 901 353.8 901C343 901 332 901 321.2 901C310.3 901 299.7 901 289 901C278.3 901 267.7 901 257 901C246.3 901 235.7 901 225 901C214.3 901 203.7 901 193 901C182.3 901 171.7 901 161 901C150.3 901 139.7 901 128.8 901C118 901 107 901 96.2 901C85.3 901 74.7 901 64 901C53.3 901 42.7 901 32 901C21.3 901 10.7 901 5.3 901L0 901Z" fill="#094871"></path><path d="M0 494L5.3 495C10.7 496 21.3 498 32 497.8C42.7 497.7 53.3 495.3 64 492C74.7 488.7 85.3 484.3 96.2 487.3C107 490.3 118 500.7 128.8 501.7C139.7 502.7 150.3 494.3 161 491.2C171.7 488 182.3 490 193 493.7C203.7 497.3 214.3 502.7 225 498.7C235.7 494.7 246.3 481.3 257 480C267.7 478.7 278.3 489.3 289 490.5C299.7 491.7 310.3 483.3 321.2 485.2C332 487 343 499 353.8 500.3C364.7 501.7 375.3 492.3 386 486.5C396.7 480.7 407.3 478.3 418 477.8C428.7 477.3 439.3 478.7 444.7 479.3L450 480L450 901L444.7 901C439.3 901 428.7 901 418 901C407.3 901 396.7 901 386 901C375.3 901 364.7 901 353.8 901C343 901 332 901 321.2 901C310.3 901 299.7 901 289 901C278.3 901 267.7 901 257 901C246.3 901 235.7 901 225 901C214.3 901 203.7 901 193 901C182.3 901 171.7 901 161 901C150.3 901 139.7 901 128.8 901C118 901 107 901 96.2 901C85.3 901 74.7 901 64 901C53.3 901 42.7 901 32 901C21.3 901 10.7 901 5.3 901L0 901Z" fill="#004c81"></path><path d="M0 570L5.3 570C10.7 570 21.3 570 32 569.3C42.7 568.7 53.3 567.3 64 564.3C74.7 561.3 85.3 556.7 96.2 557.2C107 557.7 118 563.3 128.8 569.2C139.7 575 150.3 581 161 584.5C171.7 588 182.3 589 193 590C203.7 591 214.3 592 225 592.7C235.7 593.3 246.3 593.7 257 587.5C267.7 581.3 278.3 568.7 289 562C299.7 555.3 310.3 554.7 321.2 556.5C332 558.3 343 562.7 353.8 561.7C364.7 560.7 375.3 554.3 386 553.2C396.7 552 407.3 556 418 563.8C428.7 571.7 439.3 583.3 444.7 589.2L450 595L450 901L444.7 901C439.3 901 428.7 901 418 901C407.3 901 396.7 901 386 901C375.3 901 364.7 901 353.8 901C343 901 332 901 321.2 901C310.3 901 299.7 901 289 901C278.3 901 267.7 901 257 901C246.3 901 235.7 901 225 901C214.3 901 203.7 901 193 901C182.3 901 171.7 901 161 901C150.3 901 139.7 901 128.8 901C118 901 107 901 96.2 901C85.3 901 74.7 901 64 901C53.3 901 42.7 901 32 901C21.3 901 10.7 901 5.3 901L0 901Z" fill="#005092"></path><path d="M0 642L5.3 642.8C10.7 643.7 21.3 645.3 32 643.5C42.7 641.7 53.3 636.3 64 633.8C74.7 631.3 85.3 631.7 96.2 636.8C107 642 118 652 128.8 654.8C139.7 657.7 150.3 653.3 161 651.8C171.7 650.3 182.3 651.7 193 656.2C203.7 660.7 214.3 668.3 225 669.7C235.7 671 246.3 666 257 661.3C267.7 656.7 278.3 652.3 289 655C299.7 657.7 310.3 667.3 321.2 671.5C332 675.7 343 674.3 353.8 673.3C364.7 672.3 375.3 671.7 386 669.7C396.7 667.7 407.3 664.3 418 663.5C428.7 662.7 439.3 664.3 444.7 665.2L450 666L450 901L444.7 901C439.3 901 428.7 901 418 901C407.3 901 396.7 901 386 901C375.3 901 364.7 901 353.8 901C343 901 332 901 321.2 901C310.3 901 299.7 901 289 901C278.3 901 267.7 901 257 901C246.3 901 235.7 901 225 901C214.3 901 203.7 901 193 901C182.3 901 171.7 901 161 901C150.3 901 139.7 901 128.8 901C118 901 107 901 96.2 901C85.3 901 74.7 901 64 901C53.3 901 42.7 901 32 901C21.3 901 10.7 901 5.3 901L0 901Z" fill="#0053a2"></path><path d="M0 746L5.3 748.2C10.7 750.3 21.3 754.7 32 751.7C42.7 748.7 53.3 738.3 64 732C74.7 725.7 85.3 723.3 96.2 723C107 722.7 118 724.3 128.8 727.8C139.7 731.3 150.3 736.7 161 737.8C171.7 739 182.3 736 193 731.8C203.7 727.7 214.3 722.3 225 719.8C235.7 717.3 246.3 717.7 257 721.7C267.7 725.7 278.3 733.3 289 733.2C299.7 733 310.3 725 321.2 724C332 723 343 729 353.8 736.2C364.7 743.3 375.3 751.7 386 755.7C396.7 759.7 407.3 759.3 418 752.7C428.7 746 439.3 733 444.7 726.5L450 720L450 901L444.7 901C439.3 901 428.7 901 418 901C407.3 901 396.7 901 386 901C375.3 901 364.7 901 353.8 901C343 901 332 901 321.2 901C310.3 901 299.7 901 289 901C278.3 901 267.7 901 257 901C246.3 901 235.7 901 225 901C214.3 901 203.7 901 193 901C182.3 901 171.7 901 161 901C150.3 901 139.7 901 128.8 901C118 901 107 901 96.2 901C85.3 901 74.7 901 64 901C53.3 901 42.7 901 32 901C21.3 901 10.7 901 5.3 901L0 901Z" fill="#0056b2"></path><path d="M0 818L5.3 815.3C10.7 812.7 21.3 807.3 32 805.8C42.7 804.3 53.3 806.7 64 810.5C74.7 814.3 85.3 819.7 96.2 824.5C107 829.3 118 833.7 128.8 832.7C139.7 831.7 150.3 825.3 161 824.5C171.7 823.7 182.3 828.3 193 831C203.7 833.7 214.3 834.3 225 828.8C235.7 823.3 246.3 811.7 257 804.8C267.7 798 278.3 796 289 800.5C299.7 805 310.3 816 321.2 815.8C332 815.7 343 804.3 353.8 800.7C364.7 797 375.3 801 386 807.8C396.7 814.7 407.3 824.3 418 822.8C428.7 821.3 439.3 808.7 444.7 802.3L450 796L450 901L444.7 901C439.3 901 428.7 901 418 901C407.3 901 396.7 901 386 901C375.3 901 364.7 901 353.8 901C343 901 332 901 321.2 901C310.3 901 299.7 901 289 901C278.3 901 267.7 901 257 901C246.3 901 235.7 901 225 901C214.3 901 203.7 901 193 901C182.3 901 171.7 901 161 901C150.3 901 139.7 901 128.8 901C118 901 107 901 96.2 901C85.3 901 74.7 901 64 901C53.3 901 42.7 901 32 901C21.3 901 10.7 901 5.3 901L0 901Z" fill="#1057c1"></path></svg>