<?xml version="1.0" encoding="utf-8"?>
<!-- Generator: Adobe Illustrator 25.4.1, SVG Export Plug-In . SVG Version: 6.00 Build 0)  -->
<svg version="1.1" id="Layer_1" xmlns="http://www.w3.org/2000/svg" xmlns:xlink="http://www.w3.org/1999/xlink" x="0px" y="0px"
	 viewBox="0 0 478 227.5" style="enable-background:new 0 0 478 227.5;" xml:space="preserve">
<style type="text/css">
	.st0{fill:#FFFFFF;}
	.st1{fill:#F2F2F2;}
	.st2{fill:none;stroke:#000000;stroke-width:9;stroke-linejoin:round;}
	.st3{fill:#FFFFFF;stroke:#000000;stroke-width:9;stroke-linejoin:round;}
	.st4{fill:#FFFFFF;stroke:#000000;stroke-width:2.5;stroke-linejoin:round;}
</style>
<g id="logo2_copy2">
	<g id="back">
		<path class="st0" d="M144.5,221.8L5.6,221.8l67.9-117.5L144.5,221.8z"/>
		<polygon class="st1" points="73.4,104.3 43.4,221.8 144.5,221.8 		"/>
		<path class="st2" d="M144.5,221.8L5.6,221.8l67.9-117.5L144.5,221.8z"/>
	</g>
	<g id="three">
		<polygon class="st3" points="335.9,221.8 208.2,221.8 139.2,221.7 80.4,221.7 111.7,167.4 111.8,167.2 173.8,60.1 173.8,60 
			205.1,5.7 205.8,6.8 206.6,8.2 208.1,10.4 		"/>
		<polygon class="st2" points="335.9,221.8 208.2,221.8 139.2,221.7 80.4,221.7 111.7,167.4 111.8,167.2 173.8,60.1 173.8,60 
			205.1,5.7 205.8,6.8 206.6,8.2 208.1,10.4 		"/>
		<path class="st2" d="M142.8,113.7h127.8l-62.4,108L142.8,113.7z"/>
		<path class="st2" d="M238.6,167.3l-63.5-0.1l30.9-53.6L238.6,167.3z"/>
		<path class="st2" d="M111.6,167.2l63.5,0.1l-30.9,53.6L111.6,167.2z"/>
		<path class="st2" d="M173.8,60l63.5,0.1l-30.9,53.7L173.8,60z"/>
		<path class="st2" d="M238.6,167.3l63.5,0.1l-30.9,53.6L238.6,167.3z"/>
	</g>
	<g id="second">
		<path class="st0" d="M418.3,221.7h-170l83-143.8L418.3,221.7z"/>
		<polygon class="st1" points="331.3,78 294.5,221.8 418.3,221.7 		"/>
		<path class="st2" d="M418.3,221.7h-170l83-143.8L418.3,221.7z"/>
	</g>
	<g id="front">
		<path class="st4" d="M472.3,221.9l-110-0.1l53.8-93L472.3,221.9z"/>
		<polygon class="st1" points="416.1,128.8 392.2,221.8 472.3,221.9 		"/>
		<path class="st2" d="M472.3,221.9l-110-0.1l53.8-93L472.3,221.9z"/>
	</g>
</g>
</svg>
